<svg width="24" height="24" viewBox="0 0 24 24" fill="none" xmlns="http://www.w3.org/2000/svg">
<path fill-rule="evenodd" clip-rule="evenodd" d="M7.65889 19.4927C7.94889 19.4927 8.18302 19.7278 8.18302 20.0168C8.18302 20.3068 7.94889 20.5419 7.65889 20.5419C7.36889 20.5419 7.13477 20.3068 7.13477 20.0168C7.13477 19.7278 7.36889 19.4927 7.65889 19.4927Z" fill="white" stroke="white" stroke-width="1.4" stroke-linecap="square"/>
<path fill-rule="evenodd" clip-rule="evenodd" d="M18.5261 19.4927C18.8161 19.4927 19.0512 19.7278 19.0512 20.0168C19.0512 20.3068 18.8161 20.5419 18.5261 20.5419C18.2361 20.5419 18.002 20.3068 18.002 20.0168C18.002 19.7278 18.2361 19.4927 18.5261 19.4927Z" fill="white" stroke="white" stroke-width="1.4" stroke-linecap="square"/>
<path d="M5.62516 6.51821H21.25L19.9806 16.1529H6.49355L5.21652 3.45801H2.75" stroke="white" stroke-width="1.4" stroke-linecap="square"/>
</svg>
