<svg width="25" height="24" viewBox="0 0 25 24" fill="none" xmlns="http://www.w3.org/2000/svg">
<path d="M21.5714 12C21.5714 13.78 21.0436 15.5201 20.0546 17.0001C19.0657 18.4802 17.6601 19.6337 16.0156 20.3149C14.371 20.9961 12.5614 21.1743 10.8156 20.8271C9.06977 20.4798 7.46612 19.6226 6.20745 18.364C4.94878 17.1053 4.09161 15.5016 3.74434 13.7558C3.39708 12.01 3.57531 10.2004 4.2565 8.55585C4.93768 6.91131 6.09124 5.50571 7.57128 4.51677C9.05132 3.52784 10.7914 3 12.5714 3L12.5714 12H21.5714Z" stroke="white" stroke-width="1.4" stroke-linecap="square"/>
<circle cx="9" cy="9" r="9" transform="matrix(1 0 0 -1 3.57141 21)" stroke="white" stroke-width="1.4" stroke-linecap="square"/>
</svg>
