<svg width="24" height="24" viewBox="0 0 24 24" fill="none" xmlns="http://www.w3.org/2000/svg">
<path d="M4.3314 12.0474L12 20L19.6686 12.0474C20.5211 11.1633 21 9.96429 21 8.71405C21 6.11055 18.9648 4 16.4543 4C15.2487 4 14.0925 4.49666 13.24 5.38071L12 6.66667L10.76 5.38071C9.90749 4.49666 8.75128 4 7.54569 4C5.03517 4 3 6.11055 3 8.71405C3 9.96429 3.47892 11.1633 4.3314 12.0474Z" fill="#E11E1D"/>
<path d="M12 20L11.4961 20.4859L12 21.0084L12.5039 20.4859L12 20ZM4.3314 12.0474L3.82751 12.5333H3.82751L4.3314 12.0474ZM19.6686 12.0474L19.1647 11.5615L19.6686 12.0474ZM10.76 5.38071L10.2561 5.86661V5.86661L10.76 5.38071ZM12 6.66667L11.4961 7.15256L12 7.67512L12.5039 7.15256L12 6.66667ZM13.24 5.38071L12.7361 4.89482V4.89482L13.24 5.38071ZM12.5039 19.5141L4.83529 11.5615L3.82751 12.5333L11.4961 20.4859L12.5039 19.5141ZM19.1647 11.5615L11.4961 19.5141L12.5039 20.4859L20.1725 12.5333L19.1647 11.5615ZM10.2561 5.86661L11.4961 7.15256L12.5039 6.18077L11.2639 4.89482L10.2561 5.86661ZM12.5039 7.15256L13.7439 5.86661L12.7361 4.89482L11.4961 6.18077L12.5039 7.15256ZM16.4543 3.3C15.0547 3.3 13.7178 3.87683 12.7361 4.89482L13.7439 5.86661C14.4673 5.11648 15.4428 4.7 16.4543 4.7V3.3ZM20.3 8.71405C20.3 9.78668 19.8889 10.8105 19.1647 11.5615L20.1725 12.5333C21.1533 11.5162 21.7 10.1419 21.7 8.71405H20.3ZM21.7 8.71405C21.7 5.74816 19.3752 3.3 16.4543 3.3V4.7C18.5545 4.7 20.3 6.47294 20.3 8.71405H21.7ZM7.54569 4.7C8.55724 4.7 9.53275 5.11648 10.2561 5.86661L11.2639 4.89482C10.2822 3.87683 8.94531 3.3 7.54569 3.3V4.7ZM3.7 8.71405C3.7 6.47294 5.44555 4.7 7.54569 4.7V3.3C4.6248 3.3 2.3 5.74816 2.3 8.71405H3.7ZM4.83529 11.5615C4.11112 10.8105 3.7 9.78669 3.7 8.71405H2.3C2.3 10.1419 2.84671 11.5161 3.82751 12.5333L4.83529 11.5615Z" fill="#E11E1D"/>
</svg>
