<svg width="17" height="17" viewBox="0 0 17 17" fill="none" xmlns="http://www.w3.org/2000/svg">
<mask id="mask0_310_7723" style="mask-type:alpha" maskUnits="userSpaceOnUse" x="0" y="0" width="17" height="17">
<rect x="0.61499" y="0.513672" width="16" height="16" fill="#D9D9D9"/>
</mask>
<g mask="url(#mask0_310_7723)">
<path d="M11.2316 9.43001L10.1983 8.39668C10.2428 7.97446 10.115 7.61057 9.81498 7.30501C9.51498 6.99946 9.15387 6.8689 8.73164 6.91335L7.69831 5.88001C7.84276 5.82446 7.99276 5.78279 8.14831 5.75501C8.30387 5.72724 8.45942 5.71335 8.61498 5.71335C9.39276 5.71335 10.0539 5.98557 10.5983 6.53001C11.1428 7.07446 11.415 7.73557 11.415 8.51335C11.415 8.6689 11.4011 8.82446 11.3733 8.98001C11.3455 9.13557 11.2983 9.28557 11.2316 9.43001ZM13.4483 11.6467L12.5816 10.78C12.9816 10.4689 13.3455 10.1272 13.6733 9.75501C14.0011 9.38279 14.2761 8.9689 14.4983 8.51335C13.9539 7.39112 13.1511 6.51057 12.09 5.87168C11.0289 5.23279 9.87053 4.91335 8.61498 4.91335C8.32609 4.91335 8.04276 4.93001 7.76498 4.96335C7.4872 4.99668 7.21498 5.05224 6.94831 5.13001L5.98164 4.16335C6.40387 3.99668 6.83442 3.88001 7.27331 3.81335C7.7122 3.74668 8.15942 3.71335 8.61498 3.71335C10.2039 3.71335 11.6566 4.1439 12.9733 5.00501C14.29 5.86612 15.2372 7.03557 15.815 8.51335C15.5705 9.14668 15.2455 9.72168 14.84 10.2383C14.4344 10.755 13.9705 11.2245 13.4483 11.6467ZM13.415 15.0133L11.2483 12.8467C10.8261 13.0022 10.3955 13.1189 9.95665 13.1967C9.51776 13.2745 9.07053 13.3133 8.61498 13.3133C7.02609 13.3133 5.57331 12.8828 4.25664 12.0217C2.93998 11.1606 1.99276 9.99112 1.41498 8.51335C1.65942 7.88001 1.98164 7.30224 2.38164 6.78001C2.78164 6.25779 3.24831 5.78557 3.78164 5.36335L2.11498 3.69668L2.96498 2.84668L14.265 14.1633L13.415 15.0133ZM4.63164 6.23001C4.24276 6.54112 3.88164 6.88279 3.54831 7.25501C3.21498 7.62724 2.94276 8.04668 2.73164 8.51335C3.27609 9.63557 4.07887 10.5161 5.13998 11.155C6.20109 11.7939 7.35942 12.1133 8.61498 12.1133C8.90387 12.1133 9.1872 12.0939 9.46498 12.055C9.74275 12.0161 10.0205 11.9633 10.2983 11.8967L9.54831 11.1467C9.39276 11.2022 9.2372 11.2439 9.08164 11.2717C8.92609 11.2995 8.77053 11.3133 8.61498 11.3133C7.8372 11.3133 7.17609 11.0411 6.63164 10.4967C6.0872 9.95224 5.81498 9.29112 5.81498 8.51335C5.81498 8.35779 5.83442 8.20224 5.87331 8.04668C5.9122 7.89112 5.94831 7.73557 5.98164 7.58001L4.63164 6.23001Z" fill="#B1B1B1"/>
</g>
</svg>
