<svg width="24" height="24" viewBox="0 0 24 24" fill="none" xmlns="http://www.w3.org/2000/svg">
<path d="M12.0002 15.6875C14.0368 15.6875 15.6877 14.0365 15.6877 11.9999C15.6877 9.96335 14.0368 8.31238 12.0002 8.31238C9.96362 8.31238 8.31265 9.96335 8.31265 11.9999C8.31265 14.0365 9.96362 15.6875 12.0002 15.6875Z" stroke="white" stroke-width="1.4" stroke-linecap="square"/>
<g clip-path="url(#clip0_43_750)">
<path d="M20.1366 12C20.1366 11.4034 20.0718 10.822 19.9499 10.2619L21.2364 9.26015L18.9909 5.37096L17.479 5.98465C16.6231 5.20455 15.5998 4.60502 14.4696 4.2454L14.2454 2.6311H9.75457L9.53038 4.2454C8.40018 4.60506 7.37695 5.20459 6.521 5.98465L5.00908 5.37096L2.76364 9.26015L4.05009 10.2619C3.9282 10.822 3.86338 11.4034 3.86338 12C3.86338 12.5966 3.9282 13.178 4.05009 13.7381L2.76364 14.7399L5.00908 18.6291L6.521 18.0153C7.37695 18.7954 8.40018 19.395 9.53038 19.7546L9.75457 21.3689H14.2454L14.4696 19.7546C15.5998 19.3949 16.6231 18.7954 17.479 18.0153L18.9909 18.6291L21.2364 14.7399L19.9499 13.7381C20.0719 13.178 20.1366 12.5966 20.1366 12Z" stroke="white" stroke-width="1.4" stroke-miterlimit="10"/>
</g>
<defs>
<clipPath id="clip0_43_750">
<rect width="20" height="20" fill="white" transform="translate(2 2)"/>
</clipPath>
</defs>
</svg>
