<svg width="16" height="16" viewBox="0 0 16 16" fill="none" xmlns="http://www.w3.org/2000/svg">
<g clip-path="url(#clip0_1080_42601)">
<mask id="mask0_1080_42601" style="mask-type:alpha" maskUnits="userSpaceOnUse" x="0" y="0" width="16" height="16">
<rect width="16" height="16" fill="#D9D9D9"/>
</mask>
<g mask="url(#mask0_1080_42601)">
<path d="M7.99999 10.8C8.77777 10.8 9.43888 10.5277 9.98332 9.98328C10.5278 9.43884 10.8 8.77773 10.8 7.99995C10.8 7.22217 10.5278 6.56106 9.98332 6.01662C9.43888 5.47217 8.77777 5.19995 7.99999 5.19995C7.22221 5.19995 6.5611 5.47217 6.01665 6.01662C5.47221 6.56106 5.19999 7.22217 5.19999 7.99995C5.19999 8.77773 5.47221 9.43884 6.01665 9.98328C6.5611 10.5277 7.22221 10.8 7.99999 10.8ZM7.99999 9.59995C7.55554 9.59995 7.17777 9.4444 6.86665 9.13329C6.55554 8.82217 6.39999 8.4444 6.39999 7.99995C6.39999 7.55551 6.55554 7.17773 6.86665 6.86662C7.17777 6.55551 7.55554 6.39995 7.99999 6.39995C8.44443 6.39995 8.82221 6.55551 9.13332 6.86662C9.44443 7.17773 9.59999 7.55551 9.59999 7.99995C9.59999 8.4444 9.44443 8.82217 9.13332 9.13329C8.82221 9.4444 8.44443 9.59995 7.99999 9.59995ZM7.99999 12.8C6.41554 12.8 4.97221 12.3638 3.66999 11.4916C2.36777 10.6194 1.4111 9.45551 0.799988 7.99995C1.4111 6.5444 2.36777 5.38051 3.66999 4.50828C4.97221 3.63606 6.41554 3.19995 7.99999 3.19995C9.58443 3.19995 11.0278 3.63606 12.33 4.50828C13.6322 5.38051 14.5889 6.5444 15.2 7.99995C14.5889 9.45551 13.6322 10.6194 12.33 11.4916C11.0278 12.3638 9.58443 12.8 7.99999 12.8ZM7.99999 11.6C9.24443 11.6 10.3944 11.2777 11.45 10.6333C12.5055 9.98884 13.3167 9.11106 13.8833 7.99995C13.3167 6.88884 12.5055 6.01106 11.45 5.36662C10.3944 4.72217 9.24443 4.39995 7.99999 4.39995C6.75554 4.39995 5.60554 4.72217 4.54999 5.36662C3.49443 6.01106 2.68332 6.88884 2.11665 7.99995C2.68332 9.11106 3.49443 9.98884 4.54999 10.6333C5.60554 11.2777 6.75554 11.6 7.99999 11.6Z" fill="#B1B1B1"/>
</g>
</g>
<defs>
<clipPath id="clip0_1080_42601">
<rect width="16" height="16" fill="white"/>
</clipPath>
</defs>
</svg>
