<svg width="66" height="18" viewBox="0 0 66 18" fill="none" xmlns="http://www.w3.org/2000/svg">
<g id="Logo" clip-path="url(#clip0_916_2087)">
<path id="union" d="M0.197927 0.35141H8.66921C15.9529 0.35141 18.8031 4.56833 18.8031 9.03254C18.8031 13.5748 15.148 17.6226 8.19419 17.6226H0.211122C0.0659757 17.6226 0.0131951 17.5315 0.0131951 17.4534C0.0131951 17.3623 0.105561 17.2842 0.237513 17.2842H1.72856C2.19039 17.2842 2.49388 17.0108 2.49388 16.5033V1.49675C2.49388 1.11931 2.30915 0.70282 1.70217 0.70282H0.184732C0.0659757 0.70282 0 0.624729 0 0.533623C0 0.455531 0.0263903 0.35141 0.197927 0.35141ZM5.48918 16.8156C5.48918 17.1931 5.66072 17.3102 5.91143 17.3102H8.1546C13.6834 17.3102 15.689 13.1323 15.689 8.94143C15.689 4.75054 13.5646 0.689805 8.89353 0.689805H5.84545C5.52877 0.689805 5.50238 0.950108 5.50238 1.06725L5.48918 16.8156ZM19.6476 0.35141C19.5156 0.35141 19.3969 0.403471 19.3969 0.507592C19.3969 0.611714 19.4628 0.67679 19.5816 0.67679H21.0726C21.4157 0.67679 21.7456 0.911063 21.7456 1.56182V16.5163C21.7456 16.8286 21.5081 17.2972 21.0858 17.2972H19.608C19.4365 17.2972 19.4233 17.4273 19.4233 17.4794C19.4233 17.5315 19.4101 17.6226 19.608 17.6226H26.7861C26.8917 17.6226 27.0369 17.6095 27.0369 17.5054C27.0369 17.4013 27.0105 17.2972 26.8257 17.2972H25.4402C25.2423 17.2972 24.7013 17.18 24.7013 16.5813V1.40564C24.7013 0.976139 24.9784 0.689805 25.4798 0.689805H26.8389C26.9577 0.689805 27.0237 0.624729 27.0237 0.533623C27.0237 0.442516 26.9577 0.364425 26.7993 0.364425H19.6476V0.35141ZM30.8634 8.99349C30.8634 4.21692 33.0275 0.35141 37.0916 0.35141C41.0765 0.35141 43.3197 4.21692 43.3197 8.99349C43.3197 13.7701 41.2744 17.6356 37.0916 17.6356C33.0406 17.6486 30.8634 13.7701 30.8634 8.99349ZM37.0916 18C42.871 18 46.5129 13.9653 46.5129 9.00651C46.5129 4.04772 42.9106 0 37.0916 0C31.2857 0 27.6702 4.03471 27.6702 8.99349C27.6702 13.9523 31.4308 18 37.0916 18ZM64.9861 17.5184C62.7165 17.7527 61.463 14.0824 60.315 12.3384C59.4573 11.0499 57.6364 9.73536 55.8419 9.47505C58.7976 9.30586 62.1096 8.36876 62.1096 5.06291C62.1096 2.38178 60.4338 0.35141 54.2848 0.35141H47.199C47.1067 0.35141 47.0143 0.403471 47.0143 0.507592C47.0143 0.611714 47.1067 0.67679 47.199 0.67679H48.822C49.1651 0.67679 49.495 0.911063 49.495 1.56182V16.5163C49.495 16.8286 49.2575 17.2972 48.8352 17.2972H47.2386C47.1067 17.2972 47.0539 17.4013 47.0539 17.4534C47.0539 17.5054 47.1067 17.6226 47.2386 17.6226H54.7599C54.8654 17.6226 54.9578 17.5705 54.9578 17.4664C54.9578 17.3623 54.8918 17.2972 54.7467 17.2972H53.2292C53.0313 17.2972 52.4903 17.167 52.4903 16.5813V9.5141H53.2688C56.9898 9.5141 57.2669 13.4967 59.1143 15.7744C60.6977 17.7267 62.7693 17.974 63.9437 17.974C64.4451 17.974 64.7882 17.961 65.1049 17.8829C65.3028 17.8178 65.3424 17.4794 64.9861 17.5184ZM53.2424 0.67679H54.3376C56.2113 0.67679 59.2462 1.40564 59.2462 4.89371C59.2462 8.09544 56.5544 9.1757 54.0605 9.1757H52.4639V1.40564C52.4639 0.963124 52.741 0.67679 53.2424 0.67679Z" fill="white"/>
</g>
<defs>
<clipPath id="clip0_916_2087">
<rect width="66" height="18" fill="white"/>
</clipPath>
</defs>
</svg>
