<svg width="131" height="36" viewBox="0 0 131 36" fill="none" xmlns="http://www.w3.org/2000/svg">
<path d="M0.395854 0.70282H17.3384C31.9059 0.70282 37.6062 9.13666 37.6062 18.0651C37.6062 27.1497 30.2961 35.2451 16.3884 35.2451H0.422245C0.131951 35.2451 0.0263903 35.0629 0.0263903 34.9067C0.0263903 34.7245 0.211122 34.5683 0.475025 34.5683H3.45713C4.38079 34.5683 4.98777 34.0217 4.98777 33.0065V2.99349C4.98777 2.23861 4.6183 1.40564 3.40435 1.40564H0.369464C0.131951 1.40564 0 1.24946 0 1.06725C0 0.911063 0.0527806 0.70282 0.395854 0.70282ZM10.9784 33.6312C10.9784 34.3861 11.3214 34.6204 11.8229 34.6204H16.3092C27.3667 34.6204 31.3781 26.2646 31.3781 17.8829C31.3781 9.50108 27.1292 1.37961 17.7871 1.37961H11.6909C11.0575 1.37961 11.0048 1.90022 11.0048 2.13449L10.9784 33.6312ZM39.2951 0.70282C39.0312 0.70282 38.7937 0.806941 38.7937 1.01518C38.7937 1.22343 38.9257 1.35358 39.1632 1.35358H42.1453C42.8314 1.35358 43.4912 1.82213 43.4912 3.12364V33.0325C43.4912 33.6573 43.0162 34.5944 42.1717 34.5944H39.216C38.8729 34.5944 38.8465 34.8547 38.8465 34.9588C38.8465 35.0629 38.8201 35.2451 39.216 35.2451H53.5723C53.7834 35.2451 54.0737 35.2191 54.0737 35.0108C54.0737 34.8026 54.0209 34.5944 53.6515 34.5944H50.8805C50.4846 34.5944 49.4026 34.3601 49.4026 33.1627V2.81128C49.4026 1.95228 49.9568 1.37961 50.9597 1.37961H53.6779C53.9154 1.37961 54.0473 1.24946 54.0473 1.06725C54.0473 0.885032 53.9154 0.72885 53.5987 0.72885H39.2951V0.70282ZM61.7269 17.987C61.7269 8.43384 66.0549 0.70282 74.1831 0.70282C82.153 0.70282 86.6393 8.43384 86.6393 17.987C86.6393 27.5401 82.5488 35.2711 74.1831 35.2711C66.0813 35.2972 61.7269 27.5401 61.7269 17.987ZM74.1831 36C85.7421 36 93.0258 27.9306 93.0258 18.013C93.0258 8.09544 85.8212 0 74.1831 0C62.5714 0 55.3404 8.06941 55.3404 17.987C55.3404 27.9046 62.8617 36 74.1831 36ZM129.972 35.0369C125.433 35.5054 122.926 28.1649 120.63 24.6768C118.915 22.0998 115.273 19.4707 111.684 18.9501C117.595 18.6117 124.219 16.7375 124.219 10.1258C124.219 4.76356 120.868 0.70282 108.57 0.70282H94.3981C94.2133 0.70282 94.0286 0.806941 94.0286 1.01518C94.0286 1.22343 94.2133 1.35358 94.3981 1.35358H97.6441C98.3302 1.35358 98.99 1.82213 98.99 3.12364V33.0325C98.99 33.6573 98.515 34.5944 97.6705 34.5944H94.4772C94.2133 34.5944 94.1078 34.8026 94.1078 34.9067C94.1078 35.0108 94.2133 35.2451 94.4772 35.2451H109.52C109.731 35.2451 109.916 35.141 109.916 34.9328C109.916 34.7245 109.784 34.5944 109.493 34.5944H106.458C106.063 34.5944 104.981 34.3341 104.981 33.1627V19.0282H106.538C113.98 19.0282 114.534 26.9935 118.229 31.5488C121.395 35.4534 125.539 35.9479 127.887 35.9479C128.89 35.9479 129.576 35.9219 130.21 35.7657C130.606 35.6356 130.685 34.9588 129.972 35.0369ZM106.485 1.35358H108.675C112.423 1.35358 118.492 2.81128 118.492 9.78742C118.492 16.1909 113.109 18.3514 108.121 18.3514H104.928V2.81128C104.928 1.92625 105.482 1.35358 106.485 1.35358Z" fill="white"/>
</svg>
